# xmcd CD database file
#
# Track frame offsets:
#	150
#	12710
#	26347
#	46185
#	58685
#	68367
#	79725
#	92532
#	102075
#	112285
#	132575
#	145332
#	155342
#	165900
#
# Disc length: 2358 seconds
#
# Revision: 2
# Processed by: cddbd v1.5.2PL0 Copyright (c) Steve Scherf et al.
# Submitted via: CDex 1.70beta2
#
DISCID=b009340e
DTITLE=Various Artist - Country Festival
DYEAR=1900
DGENRE=Country
TTITLE0=Johnny Cash - Folsom Prison Blues
TTITLE1=Willie Nelson - Home Is Where You're Happy
TTITLE2=Dave Travis - Sweet Country Music
TTITLE3=Oak Ridge Boy's - You'll Never Walk Alone
TTITLE4=Dolly Parton - Release Me
TTITLE5=George Jones - I Can't Change Overnight
TTITLE6=Don Williams - Where Do We Go From Here?
TTITLE7=Donna Fargo - Sticks And Stones
TTITLE8=Carl Perkins - Daddy Sang Bass
TTITLE9=Gram Parsons+Emmylou Harris - Love Hurts
TTITLE10=Freddy Fender - Silver Wings
TTITLE11=Eddie Jones - Deep In The Heart Of Texas
TTITLE12=Frankie Lane - The Love Of A Woman
TTITLE13=Don David J.R. - Minnesota Bay
EXTD=
EXTT0=
EXTT1=
EXTT2=
EXTT3=
EXTT4=
EXTT5=
EXTT6=
EXTT7=
EXTT8=
EXTT9=
EXTT10=
EXTT11=
EXTT12=
EXTT13=
PLAYORDER=
